<?xml version="1.0" encoding="UTF-8" standalone="no"?>
<!DOCTYPE svg PUBLIC "-//W3C//DTD SVG 1.1//EN" "http://www.w3.org/Graphics/SVG/1.1/DTD/svg11.dtd">
<svg width="100%" height="100%" viewBox="0 0 500 500" version="1.1" xmlns="http://www.w3.org/2000/svg" xmlns:xlink="http://www.w3.org/1999/xlink" xml:space="preserve" xmlns:serif="http://www.serif.com/" style="fill-rule:evenodd;clip-rule:evenodd;stroke-linejoin:round;stroke-miterlimit:2;">
    <rect x="-10.985" y="-8.59" width="532.174" height="521.551"/>
    <g transform="matrix(4.25138e-17,-0.483333,1.98331,1.11637e-16,-13.8743,493.462)">
        <rect x="13.746" y="15.338" width="473.095" height="235.505" style="fill:url(#_Linear1);"/>
    </g>
    <g transform="matrix(4.25138e-17,0.483333,1.98331,-1.11637e-16,-13.8743,13.5117)">
        <rect x="13.746" y="15.338" width="473.095" height="235.505" style="fill:url(#_Linear2);"/>
    </g>
    <g transform="matrix(1.855,0,0,1.99098,29.6408,185.723)">
        <path d="M126.93,3.414C112.08,2.715 34.512,0.744 0,15.695C9.334,21.209 19.346,26.929 31.1,33.129C65.303,17.127 109.676,11.34 150.484,9.113L150.484,8.076C142.549,7.107 133.789,5.412 126.93,3.414Z" style="fill:rgb(187,153,90);fill-rule:nonzero;"/>
        <path d="M161.801,9.686C131.182,12.742 76.979,21.619 46.094,40.85C57.324,46.5 69.067,52.094 80.799,57.321C113.317,29.598 156.33,17.303 200.162,8.686L200.162,7.67C189.025,8.98 172.199,9.781 161.801,9.686Z" style="fill:rgb(187,153,90);fill-rule:nonzero;"/>
        <path d="M96.949,64.266C111.763,70.391 127.088,76.024 140.142,79.789C155.871,48.523 184.306,23.738 236.712,1.025L236.712,0C169.398,18.406 127.275,31.594 96.949,64.266Z" style="fill:rgb(187,153,90);fill-rule:nonzero;"/>
    </g>
    <rect x="18.597" y="249.556" width="464.163" height="9.461"/>
    <defs>
        <linearGradient id="_Linear1" x1="0" y1="0" x2="1" y2="0" gradientUnits="userSpaceOnUse" gradientTransform="matrix(473.095,0,0,235.505,13.746,133.091)"><stop offset="0" style="stop-color:rgb(28,28,28);stop-opacity:1"/><stop offset="1" style="stop-color:rgb(56,56,56);stop-opacity:1"/></linearGradient>
        <linearGradient id="_Linear2" x1="0" y1="0" x2="1" y2="0" gradientUnits="userSpaceOnUse" gradientTransform="matrix(473.095,0,0,235.505,13.746,133.091)"><stop offset="0" style="stop-color:rgb(28,28,28);stop-opacity:1"/><stop offset="1" style="stop-color:rgb(56,56,56);stop-opacity:1"/></linearGradient>
    </defs>
</svg>
