<?xml version="1.0" encoding="UTF-8" standalone="no"?>
<!DOCTYPE svg PUBLIC "-//W3C//DTD SVG 1.1//EN" "http://www.w3.org/Graphics/SVG/1.1/DTD/svg11.dtd">
<svg width="100%" height="100%" viewBox="0 0 1133 173" version="1.1" xmlns="http://www.w3.org/2000/svg" xmlns:xlink="http://www.w3.org/1999/xlink" xml:space="preserve" xmlns:serif="http://www.serif.com/" style="fill-rule:evenodd;clip-rule:evenodd;stroke-linejoin:round;stroke-miterlimit:2;">
    <g id="Artboard1" transform="matrix(1.14203,0,0,0.866267,-25.8628,-215.174)">
        <rect x="22.646" y="248.392" width="991.516" height="199.375" style="fill:none;"/>
        <g id="Board" transform="matrix(0.575908,0,0,0.75924,11.2007,106.546)">
            <g id="Flip-Flaps" transform="matrix(0.861551,1.08883e-21,-1.5897e-21,0.855087,-5.22499,61.5416)">
                <g transform="matrix(2.52609e-17,-0.298407,1.18187,6.91231e-17,19.4892,445.018)">
                    <rect x="13.746" y="15.338" width="473.095" height="235.505" style="fill:url(#_Linear1);"/>
                </g>
                <g transform="matrix(2.54077e-17,0.298407,1.18187,-6.87249e-17,19.4892,148.699)">
                    <rect x="13.746" y="15.338" width="473.095" height="235.505" style="fill:url(#_Linear2);"/>
                </g>
                <g transform="matrix(1.58062,-2.0127e-21,3.25825e-21,1.76583,352.178,412.196)">
                    <g transform="matrix(0.699351,1.06243e-19,1.8982e-19,0.696114,-194.074,-89.0083)">
                        <path d="M126.93,3.414C112.08,2.715 34.512,0.744 0,15.695C9.334,21.209 19.346,26.929 31.1,33.129C65.303,17.127 109.676,11.34 150.484,9.113L150.484,8.076C142.549,7.107 133.789,5.412 126.93,3.414Z" style="fill:rgb(187,153,90);fill-rule:nonzero;"/>
                    </g>
                    <g transform="matrix(0.699351,1.06243e-19,1.8982e-19,0.696114,-194.074,-89.0083)">
                        <path d="M161.801,9.686C131.182,12.742 76.979,21.619 46.094,40.85C57.324,46.5 69.067,52.094 80.799,57.321C113.317,29.598 156.33,17.303 200.162,8.686L200.162,7.67C189.025,8.98 172.199,9.781 161.801,9.686Z" style="fill:rgb(187,153,90);fill-rule:nonzero;"/>
                    </g>
                    <g transform="matrix(0.699351,1.06243e-19,1.8982e-19,0.696114,-194.074,-89.0083)">
                        <path d="M96.949,64.266C111.763,70.391 127.088,76.024 140.142,79.789C155.871,48.523 184.306,23.738 236.712,1.025L236.712,0C169.398,18.406 127.275,31.594 96.949,64.266Z" style="fill:rgb(187,153,90);fill-rule:nonzero;"/>
                    </g>
                </g>
                <g transform="matrix(0.597515,1.2879e-19,1.52562e-19,0.790857,27.7271,96.4589)">
                    <rect x="18.597" y="249.556" width="464.163" height="9.461"/>
                </g>
            </g>
            <g id="Flip-Flaps1" serif:id="Flip-Flaps" transform="matrix(0.861551,1.08883e-21,-1.5897e-21,0.855087,239.455,61.5416)">
                <g transform="matrix(2.52609e-17,-0.298407,1.18187,6.91231e-17,19.4892,445.018)">
                    <rect x="13.746" y="15.338" width="473.095" height="235.505" style="fill:url(#_Linear3);"/>
                </g>
                <g transform="matrix(2.54077e-17,0.298407,1.18187,-6.87249e-17,19.4892,148.699)">
                    <rect x="13.746" y="15.338" width="473.095" height="235.505" style="fill:url(#_Linear4);"/>
                </g>
                <g transform="matrix(1.1607,-1.47799e-21,2.15787e-21,1.16947,-330.334,56.1498)">
                    <g transform="matrix(295.833,0,0,295.833,615.767,311.244)">
                    </g>
                    <text x="336.256px" y="311.244px" style="font-family:'ArialMT', 'Arial', sans-serif;font-size:295.833px;fill:rgb(187,153,90);">S</text>
                </g>
                <g transform="matrix(0.599006,1.28788e-19,1.52939e-19,0.790857,26.5859,96.2376)">
                    <rect x="18.597" y="249.556" width="464.163" height="9.461"/>
                </g>
            </g>
            <g id="Flip-Flaps2" serif:id="Flip-Flaps" transform="matrix(0.861551,1.08883e-21,-1.5897e-21,0.855087,483.784,61.6131)">
                <g transform="matrix(2.52609e-17,-0.298407,1.18187,6.91231e-17,19.4892,445.018)">
                    <rect x="13.746" y="15.338" width="473.095" height="235.505" style="fill:url(#_Linear5);"/>
                </g>
                <g transform="matrix(2.54077e-17,0.298407,1.18187,-6.87249e-17,19.4892,148.699)">
                    <rect x="13.746" y="15.338" width="473.095" height="235.505" style="fill:url(#_Linear6);"/>
                </g>
                <g transform="matrix(1.1607,-1.47799e-21,2.15787e-21,1.16947,-325.162,56.2325)">
                    <g transform="matrix(295.833,0,0,295.833,593.81,311.244)">
                    </g>
                    <text x="336.256px" y="311.244px" style="font-family:'ArialMT', 'Arial', sans-serif;font-size:295.833px;fill:rgb(187,153,90);">T</text>
                </g>
                <g transform="matrix(0.599307,1.28788e-19,1.53015e-19,0.790857,26.4856,96.2778)">
                    <rect x="18.597" y="249.556" width="464.163" height="9.461"/>
                </g>
            </g>
            <g id="Flip-Flaps3" serif:id="Flip-Flaps" transform="matrix(0.861551,1.08883e-21,-1.5897e-21,0.855087,1217.66,61.3525)">
                <g transform="matrix(2.52609e-17,-0.298407,1.18187,6.91231e-17,19.4892,445.018)">
                    <rect x="13.746" y="15.338" width="473.095" height="235.505" style="fill:url(#_Linear7);"/>
                </g>
                <g transform="matrix(2.54077e-17,0.298407,1.18187,-6.87249e-17,19.4892,148.699)">
                    <rect x="13.746" y="15.338" width="473.095" height="235.505" style="fill:url(#_Linear8);"/>
                </g>
                <g transform="matrix(1.1607,-1.47799e-21,2.15787e-21,1.16947,-330.334,56.1498)">
                    <g transform="matrix(295.833,0,0,295.833,632.089,311.244)">
                    </g>
                    <text x="336.256px" y="311.244px" style="font-family:'ArialMT', 'Arial', sans-serif;font-size:295.833px;fill:rgb(187,153,90);">U</text>
                </g>
                <g transform="matrix(0.599307,1.28788e-19,1.53015e-19,0.790857,26.428,96.1814)">
                    <rect x="18.597" y="249.556" width="464.163" height="9.461"/>
                </g>
            </g>
            <g id="Flip-Flaps4" serif:id="Flip-Flaps" transform="matrix(0.861551,1.08883e-21,-1.5897e-21,0.855087,1462.45,61.3525)">
                <g transform="matrix(2.52609e-17,-0.298407,1.18187,6.91231e-17,19.4892,445.018)">
                    <rect x="13.746" y="15.338" width="473.095" height="235.505" style="fill:url(#_Linear9);"/>
                </g>
                <g transform="matrix(2.54077e-17,0.298407,1.18187,-6.87249e-17,19.4892,148.699)">
                    <rect x="13.746" y="15.338" width="473.095" height="235.505" style="fill:url(#_Linear10);"/>
                </g>
                <g transform="matrix(1.1607,-1.47799e-21,2.15787e-21,1.16947,-330.334,56.1498)">
                    <g transform="matrix(295.833,0,0,295.833,615.767,311.244)">
                    </g>
                    <text x="336.256px" y="311.244px" style="font-family:'ArialMT', 'Arial', sans-serif;font-size:295.833px;fill:rgb(187,153,90);">S</text>
                </g>
                <g transform="matrix(0.599307,1.28788e-19,1.53015e-19,0.790857,26.5874,95.879)">
                    <rect x="18.597" y="249.556" width="464.163" height="9.461"/>
                </g>
            </g>
            <g id="Flip-Flaps5" serif:id="Flip-Flaps" transform="matrix(0.861551,1.08883e-21,-1.5897e-21,0.855087,974.096,62.4158)">
                <g transform="matrix(2.52609e-17,-0.298407,1.18187,6.91231e-17,19.4892,445.018)">
                    <rect x="13.746" y="15.338" width="473.095" height="235.505" style="fill:url(#_Linear11);"/>
                </g>
                <g transform="matrix(2.54077e-17,0.298407,1.18187,-6.87249e-17,19.4892,148.699)">
                    <rect x="13.746" y="15.338" width="473.095" height="235.505" style="fill:url(#_Linear12);"/>
                </g>
                <g transform="matrix(1.1607,-1.47799e-21,2.15787e-21,1.16947,-325.162,56.2325)">
                    <g transform="matrix(295.833,0,0,295.833,593.81,311.244)">
                    </g>
                    <text x="336.256px" y="311.244px" style="font-family:'ArialMT', 'Arial', sans-serif;font-size:295.833px;fill:rgb(187,153,90);">T</text>
                </g>
                <g transform="matrix(0.599307,1.28788e-19,1.53015e-19,0.790857,26.3646,96.1076)">
                    <rect x="18.597" y="249.556" width="464.163" height="9.461"/>
                </g>
            </g>
            <g id="Flip-Flaps6" serif:id="Flip-Flaps" transform="matrix(0.861551,1.08883e-21,-1.5897e-21,0.855087,728.465,61.6131)">
                <g transform="matrix(2.52609e-17,-0.298407,1.18187,6.91231e-17,19.4892,445.018)">
                    <rect x="13.746" y="15.338" width="473.095" height="235.505" style="fill:url(#_Linear13);"/>
                </g>
                <g transform="matrix(2.54077e-17,0.298407,1.18187,-6.87249e-17,19.4892,148.699)">
                    <rect x="13.746" y="15.338" width="473.095" height="235.505" style="fill:url(#_Linear14);"/>
                </g>
                <g transform="matrix(1.1607,-1.47799e-21,2.15787e-21,1.16947,-333.05,56.4581)">
                    <g transform="matrix(295.833,0,0,295.833,599.444,311.244)">
                    </g>
                    <text x="336.256px" y="311.244px" style="font-family:'ArialMT', 'Arial', sans-serif;font-size:295.833px;fill:rgb(187,153,90);">A</text>
                </g>
                <g transform="matrix(0.599307,1.28788e-19,1.53015e-19,0.790857,26.1099,95.9229)">
                    <rect x="18.597" y="249.556" width="464.163" height="9.461"/>
                </g>
            </g>
        </g>
    </g>
    <defs>
        <linearGradient id="_Linear1" x1="0" y1="0" x2="1" y2="0" gradientUnits="userSpaceOnUse" gradientTransform="matrix(473.095,0,0,235.505,13.746,133.091)"><stop offset="0" style="stop-color:rgb(28,28,28);stop-opacity:1"/><stop offset="1" style="stop-color:rgb(56,56,56);stop-opacity:1"/></linearGradient>
        <linearGradient id="_Linear2" x1="0" y1="0" x2="1" y2="0" gradientUnits="userSpaceOnUse" gradientTransform="matrix(473.095,0,0,235.505,13.746,133.091)"><stop offset="0" style="stop-color:rgb(28,28,28);stop-opacity:1"/><stop offset="1" style="stop-color:rgb(56,56,56);stop-opacity:1"/></linearGradient>
        <linearGradient id="_Linear3" x1="0" y1="0" x2="1" y2="0" gradientUnits="userSpaceOnUse" gradientTransform="matrix(473.095,0,0,235.505,13.746,133.091)"><stop offset="0" style="stop-color:rgb(28,28,28);stop-opacity:1"/><stop offset="1" style="stop-color:rgb(56,56,56);stop-opacity:1"/></linearGradient>
        <linearGradient id="_Linear4" x1="0" y1="0" x2="1" y2="0" gradientUnits="userSpaceOnUse" gradientTransform="matrix(473.095,0,0,235.505,13.746,133.091)"><stop offset="0" style="stop-color:rgb(28,28,28);stop-opacity:1"/><stop offset="1" style="stop-color:rgb(56,56,56);stop-opacity:1"/></linearGradient>
        <linearGradient id="_Linear5" x1="0" y1="0" x2="1" y2="0" gradientUnits="userSpaceOnUse" gradientTransform="matrix(473.095,0,0,235.505,13.746,133.091)"><stop offset="0" style="stop-color:rgb(28,28,28);stop-opacity:1"/><stop offset="1" style="stop-color:rgb(56,56,56);stop-opacity:1"/></linearGradient>
        <linearGradient id="_Linear6" x1="0" y1="0" x2="1" y2="0" gradientUnits="userSpaceOnUse" gradientTransform="matrix(473.095,0,0,235.505,13.746,133.091)"><stop offset="0" style="stop-color:rgb(28,28,28);stop-opacity:1"/><stop offset="1" style="stop-color:rgb(56,56,56);stop-opacity:1"/></linearGradient>
        <linearGradient id="_Linear7" x1="0" y1="0" x2="1" y2="0" gradientUnits="userSpaceOnUse" gradientTransform="matrix(473.095,0,0,235.505,13.746,133.091)"><stop offset="0" style="stop-color:rgb(28,28,28);stop-opacity:1"/><stop offset="1" style="stop-color:rgb(56,56,56);stop-opacity:1"/></linearGradient>
        <linearGradient id="_Linear8" x1="0" y1="0" x2="1" y2="0" gradientUnits="userSpaceOnUse" gradientTransform="matrix(473.095,0,0,235.505,13.746,133.091)"><stop offset="0" style="stop-color:rgb(28,28,28);stop-opacity:1"/><stop offset="1" style="stop-color:rgb(56,56,56);stop-opacity:1"/></linearGradient>
        <linearGradient id="_Linear9" x1="0" y1="0" x2="1" y2="0" gradientUnits="userSpaceOnUse" gradientTransform="matrix(473.095,0,0,235.505,13.746,133.091)"><stop offset="0" style="stop-color:rgb(28,28,28);stop-opacity:1"/><stop offset="1" style="stop-color:rgb(56,56,56);stop-opacity:1"/></linearGradient>
        <linearGradient id="_Linear10" x1="0" y1="0" x2="1" y2="0" gradientUnits="userSpaceOnUse" gradientTransform="matrix(473.095,0,0,235.505,13.746,133.091)"><stop offset="0" style="stop-color:rgb(28,28,28);stop-opacity:1"/><stop offset="1" style="stop-color:rgb(56,56,56);stop-opacity:1"/></linearGradient>
        <linearGradient id="_Linear11" x1="0" y1="0" x2="1" y2="0" gradientUnits="userSpaceOnUse" gradientTransform="matrix(473.095,0,0,235.505,13.746,133.091)"><stop offset="0" style="stop-color:rgb(28,28,28);stop-opacity:1"/><stop offset="1" style="stop-color:rgb(56,56,56);stop-opacity:1"/></linearGradient>
        <linearGradient id="_Linear12" x1="0" y1="0" x2="1" y2="0" gradientUnits="userSpaceOnUse" gradientTransform="matrix(473.095,0,0,235.505,13.746,133.091)"><stop offset="0" style="stop-color:rgb(28,28,28);stop-opacity:1"/><stop offset="1" style="stop-color:rgb(56,56,56);stop-opacity:1"/></linearGradient>
        <linearGradient id="_Linear13" x1="0" y1="0" x2="1" y2="0" gradientUnits="userSpaceOnUse" gradientTransform="matrix(473.095,0,0,235.505,13.746,133.091)"><stop offset="0" style="stop-color:rgb(28,28,28);stop-opacity:1"/><stop offset="1" style="stop-color:rgb(56,56,56);stop-opacity:1"/></linearGradient>
        <linearGradient id="_Linear14" x1="0" y1="0" x2="1" y2="0" gradientUnits="userSpaceOnUse" gradientTransform="matrix(473.095,0,0,235.505,13.746,133.091)"><stop offset="0" style="stop-color:rgb(28,28,28);stop-opacity:1"/><stop offset="1" style="stop-color:rgb(56,56,56);stop-opacity:1"/></linearGradient>
    </defs>
</svg>
